{"title":"Legend of Korra 203 XBOX360/PS3 READY","uid":8945009,"size":411639994,"categoryP":"video","categoryS":"hd___tv_shows","magnet":"?xt=urn:btih:1d67b6f7488c1f410ec5c8d4371332767d562991&amp;dn=Legend+of+Korra+203+XBOX360%2FPS3+READY&amp;tr=udp%3A%2F%2Ftracker.openbittorrent.com%3A80&amp;tr=udp%3A%2F%2Fopen.demonii.com%3A1337&amp;tr=udp%3A%2F%2Ftracker.coppersurfer.tk%3A6969&amp;tr=udp%3A%2F%2Fexodus.desync.com%3A6969","seeders":1,"leechers":0,"uploader":"Danimal1q2w3","files":1,"time":1379754406,"description":"source:\n &lt;a href=&quot;\nhttp://thepiratebay.se/torrent/8944681/The_Legend_of_Korra_S02E03_Civil_Wars_Pt._1_%281280x720%29_%5BPhr0stY%5D&quot; rel=&quot;nofollow&quot; target=&quot;_NEW&quot;&gt;\nhttp://thepiratebay.se/torrent/8944681/The_Legend_of_Korra_S02E03_Civil_Wars_Pt._1_%281280x720%29_%5BPhr0stY%5D&lt;/a&gt;\n\nVideo\nID                                       : 0\nFormat                                   : MPEG-4 Visual\nFormat profile                           : Simple@L3\nFormat settings, BVOP                    : No\nFormat settings, QPel                    : No\nFormat settings, GMC                     : No warppoints\nFormat settings, Matrix                  : Default (H.263)\nCodec ID                                 : XVID\nCodec ID/Hint                            : XviD\nDuration                                 : 23mn 32s\nBit rate                                 : 2 009 Kbps\nWidth                                    : 1 280 pixels\nHeight                                   : 720 pixels\nDisplay aspect ratio                     : 16:9\nFrame rate                               : 30.000 fps\nColor space                              : YUV\nChroma subsampling                       : 4:2:0\nBit depth                                : 8 bits\nScan type                                : Progressive\nCompression mode                         : Lossy\nBits/(Pixel*Frame)                       : 0.073\nStream size                              : 338 MiB (86%)\nWriting library                          : XviD 63\n\nAudio\nID                                       : 1\nFormat                                   : MPEG Audio\nFormat version                           : Version 1\nFormat profile                           : Layer 3\nMode                                     : Joint stereo\nMode extension                           : MS Stereo\nCodec ID                                 : 55\nCodec ID/Hint                            : MP3\nDuration                                 : 23mn 33s\nBit rate mode                            : Variable\nBit rate                                 : 308 Kbps\nChannel(s)                               : 2 channels\nSampling rate                            : 48.0 KHz\nCompression mode                         : Lossy\nStream size                              : 51.9 MiB (13%)\nAlignment                                : Aligned on interleaves\nInterleave, duration                     : 24 ms (0.72 video frame)\nInterleave, preload duration             : 486 ms\n\n","torrent":{"xt":"urn:btih:1d67b6f7488c1f410ec5c8d4371332767d562991","amp;dn":"Legend+of+Korra+203+XBOX360%2FPS3+READY","amp;tr":["udp%3A%2F%2Ftracker.openbittorrent.com%3A80","udp%3A%2F%2Fopen.demonii.com%3A1337","udp%3A%2F%2Ftracker.coppersurfer.tk%3A6969","udp%3A%2F%2Fexodus.desync.com%3A6969"],"infoHash":"1d67b6f7488c1f410ec5c8d4371332767d562991","infoHashBuffer":{"type":"Buffer","data":[29,103,182,247,72,140,31,65,14,197,200,212,55,19,50,118,125,86,41,145]},"announce":[],"urlList":[]}}